<svg xmlns="http://www.w3.org/2000/svg" width="1280" height="360" viewBox="0 0 1280 360" role="img" aria-labelledby="title desc">
  <title id="title">Bernardo Gomes</title>
  <desc id="desc">Product engineer building software for web, Linux, automation, and healthcare.</desc>
  <defs>
    <linearGradient id="background" x1="0" y1="0" x2="1" y2="1">
      <stop offset="0" stop-color="#070B17"/>
      <stop offset="0.52" stop-color="#111027"/>
      <stop offset="1" stop-color="#071B24"/>
    </linearGradient>
    <linearGradient id="accent" x1="0" y1="0" x2="1" y2="0">
      <stop offset="0" stop-color="#A78BFA"/>
      <stop offset="1" stop-color="#22D3EE"/>
    </linearGradient>
    <radialGradient id="glowPurple">
      <stop offset="0" stop-color="#7C3AED" stop-opacity="0.38"/>
      <stop offset="1" stop-color="#7C3AED" stop-opacity="0"/>
    </radialGradient>
    <radialGradient id="glowCyan">
      <stop offset="0" stop-color="#06B6D4" stop-opacity="0.3"/>
      <stop offset="1" stop-color="#06B6D4" stop-opacity="0"/>
    </radialGradient>
    <pattern id="grid" width="32" height="32" patternUnits="userSpaceOnUse">
      <path d="M32 0H0V32" fill="none" stroke="#94A3B8" stroke-opacity="0.08"/>
    </pattern>
    <filter id="shadow" x="-20%" y="-20%" width="140%" height="140%">
      <feDropShadow dx="0" dy="12" stdDeviation="22" flood-color="#000000" flood-opacity="0.35"/>
    </filter>
  </defs>
  <rect width="1280" height="360" rx="28" fill="url(#background)"/>
  <rect width="1280" height="360" rx="28" fill="url(#grid)"/>
  <circle cx="140" cy="25" r="240" fill="url(#glowPurple)"/>
  <circle cx="1160" cy="330" r="270" fill="url(#glowCyan)"/>
  <g transform="translate(100 74)" filter="url(#shadow)">
    <rect width="1080" height="212" rx="24" fill="#111827" fill-opacity="0.74" stroke="#334155" stroke-opacity="0.8"/>
    <rect x="0" y="0" width="7" height="212" rx="3.5" fill="url(#accent)"/>
  </g>
  <g font-family="Inter, ui-sans-serif, system-ui, -apple-system, BlinkMacSystemFont, Segoe UI, sans-serif">
    <text x="148" y="136" fill="#94A3B8" font-size="18" font-weight="700" letter-spacing="4">PRODUCT ENGINEER · OPEN SOURCE</text>
    <text x="145" y="205" fill="#F8FAFC" font-size="58" font-weight="800" letter-spacing="-2">Bernardo Gomes</text>
    <text x="148" y="247" fill="#CBD5E1" font-size="22" font-weight="500">Web · Linux · Automation · Hardware · Healthcare</text>
  </g>
  <g transform="translate(935 119)" fill="none" stroke="url(#accent)" stroke-width="5" stroke-linecap="round" stroke-linejoin="round">
    <path d="M0 65h46l16-35 28 91 28-72 17 36h80"/>
    <circle cx="0" cy="65" r="7" fill="#A78BFA" stroke="none"/>
    <circle cx="215" cy="85" r="7" fill="#22D3EE" stroke="none"/>
  </g>
  <g fill="#94A3B8" fill-opacity="0.55">
    <circle cx="1120" cy="93" r="4"/><circle cx="1144" cy="93" r="4"/><circle cx="1168" cy="93" r="4"/>
  </g>
</svg>
